<svg width="115" height="55" viewBox="0 0 115 55" fill="none" xmlns="http://www.w3.org/2000/svg">
<rect width="115" height="53.375" transform="translate(0 0.8125)" fill="white"/>
<path d="M15.9687 1.56549C13.7412 1.56549 11.8124 3.11432 10.916 5.3494C10.0105 3.11908 8.09532 1.57502 5.87228 1.57502C2.79354 1.57502 0.285278 4.52971 0.285278 8.15634V33.7477C0.285278 33.8969 0.341564 34.0399 0.441756 34.1454C0.541948 34.2509 0.677833 34.3101 0.819528 34.3101C0.961218 34.3101 1.09711 34.2509 1.1973 34.1454C1.29749 34.0399 1.35378 33.8969 1.35378 33.7477V8.15634C1.35378 5.14924 3.3776 2.69494 5.88134 2.69494C8.38508 2.69494 10.3772 5.12541 10.4089 8.11822V33.7335C10.4046 33.7714 10.4046 33.8098 10.4089 33.8478C10.4264 33.9801 10.4888 34.1011 10.5844 34.1888C10.6801 34.2763 10.8027 34.3245 10.9296 34.3244C10.9995 34.325 11.0689 34.311 11.1337 34.2833C11.1985 34.2556 11.2574 34.2146 11.3071 34.1628C11.3567 34.1109 11.3962 34.0493 11.4231 33.9813C11.45 33.9133 11.4638 33.8404 11.4638 33.7668V8.11822C11.4638 5.12065 13.4967 2.68541 15.9914 2.68541C18.4861 2.68541 20.5189 5.13494 20.5189 8.14681V33.7335C20.5121 33.8113 20.5208 33.8899 20.5444 33.964C20.568 34.0382 20.6061 34.1063 20.6562 34.1641C20.7062 34.2219 20.7672 34.268 20.8352 34.2996C20.9031 34.3312 20.9766 34.3475 21.0509 34.3475C21.1252 34.3475 21.1987 34.3312 21.2667 34.2996C21.3347 34.268 21.3956 34.2219 21.4457 34.1641C21.4958 34.1063 21.5338 34.0382 21.5574 33.964C21.5811 33.8899 21.5898 33.8113 21.5829 33.7335V8.14681C21.5512 4.51541 19.0475 1.56549 15.9687 1.56549Z" fill="black"/>
<path d="M35.487 1.57497C35.4169 1.57497 35.3474 1.58951 35.2826 1.61777C35.2177 1.64603 35.1588 1.68745 35.1093 1.73968C35.0596 1.79189 35.0203 1.85388 34.9934 1.92211C34.9666 1.99033 34.9528 2.06346 34.9528 2.13731V27.724C34.9528 30.7358 32.9244 33.1854 30.4252 33.1854C27.926 33.1854 25.8977 30.7358 25.8977 27.724V2.13731C25.9045 2.05943 25.8958 1.98091 25.8722 1.90676C25.8485 1.83261 25.8105 1.76447 25.7604 1.70668C25.7104 1.6489 25.6494 1.60274 25.5814 1.57115C25.5135 1.53957 25.44 1.52325 25.3657 1.52325C25.2914 1.52325 25.2179 1.53957 25.1499 1.57115C25.0819 1.60274 25.021 1.6489 24.9709 1.70668C24.9208 1.76447 24.8828 1.83261 24.8591 1.90676C24.8355 1.98091 24.8269 2.05943 24.8337 2.13731V27.724C24.8337 31.3554 27.3374 34.3053 30.4162 34.3053C31.3271 34.2877 32.2191 34.0292 33.0103 33.5537C33.8015 33.0782 34.4663 32.4009 34.9437 31.5841V53.2344C34.956 53.374 35.0173 53.5036 35.1157 53.598C35.2141 53.6928 35.3425 53.7448 35.4757 53.7448C35.6089 53.7448 35.7373 53.6928 35.8357 53.598C35.9341 53.5036 35.9954 53.374 36.0077 53.2344V2.13731C36.0078 1.99061 35.9533 1.8497 35.856 1.74464C35.7588 1.63958 35.6263 1.5787 35.487 1.57497Z" fill="black"/>
<path d="M66.8041 16.0053H60.4293V1.56073H58.0161V34.2005H60.4293V18.5454H66.8041V34.2005H69.2173V1.56073H66.8041V16.0053Z" fill="black"/>
<path d="M79.8435 1.20807H79.1553C77.826 1.20933 76.5515 1.7654 75.6112 2.75434C74.6708 3.74329 74.1411 5.0844 74.1388 6.48361V29.2824C74.1411 30.6816 74.6708 32.0227 75.6112 33.0117C76.5515 34.0006 77.826 34.5567 79.1553 34.5579H79.8435C81.1728 34.5567 82.4473 34.0006 83.3877 33.0117C84.3281 32.0227 84.8578 30.6816 84.8601 29.2824V6.48361C84.8578 5.0844 84.3281 3.74329 83.3877 2.75434C82.4473 1.7654 81.1728 1.20933 79.8435 1.20807ZM82.4469 29.2824C82.4455 30.0083 82.1707 30.7041 81.6826 31.2169C81.1945 31.7298 80.5331 32.0178 79.8435 32.0178H79.1553C78.4658 32.0178 77.8043 31.7298 77.3162 31.2169C76.8282 30.7041 76.5533 30.0083 76.552 29.2824V6.48361C76.5533 5.75766 76.8282 5.06192 77.3162 4.54905C77.8043 4.03619 78.4658 3.74815 79.1553 3.74815H79.8435C80.5331 3.74815 81.1945 4.03619 81.6826 4.54905C82.1707 5.06192 82.4455 5.75766 82.4469 6.48361V29.2824Z" fill="black"/>
<path d="M89.7815 6.43115V28.9821C89.7847 29.6717 89.9169 30.354 90.1704 30.9897C90.4244 31.6254 90.7952 32.2022 91.2611 32.687C91.727 33.1717 92.2793 33.5549 92.8865 33.8147C93.4932 34.0743 94.1429 34.2054 94.798 34.2004H97.8994V31.689H94.798C94.1121 31.6928 93.4524 31.4099 92.9644 30.9023C92.4763 30.3949 92.1997 29.7042 92.1947 28.9821V19.1554H97.8994V16.6105H92.1947V6.43115C92.1997 5.70858 92.4763 5.01746 92.9639 4.5092C93.452 4.00093 94.1117 3.71697 94.798 3.71951H97.8994V1.20802H94.798C94.1424 1.203 93.4923 1.33426 92.8851 1.59426C92.278 1.85426 91.7256 2.2379 91.2593 2.72316C90.7934 3.20843 90.4231 3.78576 90.1691 4.42207C89.9155 5.05837 89.7838 5.74113 89.7815 6.43115Z" fill="black"/>
<path d="M112.709 1.20802C112.052 1.20299 111.401 1.33487 110.792 1.59607C110.184 1.85726 109.63 2.2426 109.164 2.72988C108.698 3.21716 108.328 3.79676 108.075 4.43527C107.823 5.07378 107.693 5.75857 107.693 6.45021V29.0011C107.688 29.7233 107.411 30.4139 106.923 30.9214C106.435 31.4289 105.775 31.7118 105.089 31.708H102.825V34.2195H105.089C105.744 34.2245 106.394 34.0935 107.001 33.8337C107.608 33.574 108.16 33.1908 108.626 32.706C109.092 32.2213 109.463 31.6445 109.717 31.0088C109.97 30.373 110.103 29.6908 110.106 29.0011V6.43115C110.111 5.70858 110.387 5.01746 110.875 4.5092C111.363 4.00093 112.023 3.71697 112.709 3.71951H114.973V1.20802H112.709Z" fill="black"/>
<path d="M45.8098 6.73138V29.0345C45.8025 29.7529 45.525 30.4388 45.0377 30.9419C44.5504 31.445 43.8934 31.7239 43.2109 31.7176H40.9471V34.2004H43.2109C44.5248 34.2094 45.789 33.6715 46.7275 32.7038C47.6665 31.7362 48.204 30.4174 48.223 29.0345V6.73138C48.2266 6.3753 48.2968 6.0234 48.4294 5.69586C48.5621 5.36828 48.755 5.07145 48.9967 4.8223C49.2385 4.57316 49.5242 4.37656 49.8384 4.24377C50.1522 4.11097 50.4881 4.04456 50.8263 4.04834H53.0901V1.56545H50.8263C49.5115 1.55524 48.2465 2.0926 47.3066 3.06035C46.3671 4.02809 45.8288 5.3477 45.8098 6.73138Z" fill="black"/>
</svg>
